<svg width="25" height="25" viewBox="0 0 25 25" fill="none" xmlns="http://www.w3.org/2000/svg">
<path d="M17.1139 9.37514C17.1837 9.44479 17.239 9.52751 17.2767 9.61856C17.3145 9.70961 17.3339 9.8072 17.3339 9.90576C17.3339 10.0043 17.3145 10.1019 17.2767 10.193C17.239 10.284 17.1837 10.3667 17.1139 10.4364L11.8639 15.6864C11.7943 15.7561 11.7116 15.8114 11.6205 15.8492C11.5295 15.8869 11.4319 15.9064 11.3333 15.9064C11.2348 15.9064 11.1372 15.8869 11.0461 15.8492C10.9551 15.8114 10.8723 15.7561 10.8027 15.6864L8.55269 13.4364C8.41196 13.2957 8.3329 13.1048 8.3329 12.9058C8.3329 12.7067 8.41196 12.5159 8.55269 12.3751C8.69342 12.2344 8.88429 12.1553 9.08332 12.1553C9.28234 12.1553 9.47321 12.2344 9.61394 12.3751L11.3333 14.0954L16.0527 9.37514C16.1223 9.3054 16.2051 9.25009 16.2961 9.21234C16.3872 9.1746 16.4848 9.15517 16.5833 9.15517C16.6819 9.15517 16.7795 9.1746 16.8705 9.21234C16.9616 9.25009 17.0443 9.3054 17.1139 9.37514ZM22.5833 12.1558C22.5833 14.0841 22.0115 15.9692 20.9401 17.5726C19.8688 19.176 18.3461 20.4256 16.5645 21.1636C14.7829 21.9015 12.8225 22.0946 10.9312 21.7184C9.03987 21.3422 7.30259 20.4136 5.93903 19.0501C4.57546 17.6865 3.64687 15.9492 3.27066 14.0579C2.89445 12.1666 3.08754 10.2062 3.82549 8.4246C4.56345 6.64302 5.81313 5.12028 7.41651 4.04893C9.01989 2.97759 10.9049 2.40576 12.8333 2.40576C15.4183 2.40849 17.8967 3.4366 19.7246 5.26449C21.5525 7.09237 22.5806 9.57074 22.5833 12.1558ZM21.0833 12.1558C21.0833 10.5241 20.5995 8.92901 19.6929 7.57231C18.7864 6.2156 17.4979 5.15818 15.9905 4.53376C14.483 3.90933 12.8242 3.74596 11.2238 4.06428C9.62348 4.38261 8.15347 5.16835 6.99969 6.32213C5.8459 7.47591 5.06017 8.94592 4.74184 10.5463C4.42351 12.1466 4.58689 13.8054 5.21131 15.3129C5.83573 16.8204 6.89316 18.1089 8.24986 19.0154C9.60657 19.9219 11.2016 20.4058 12.8333 20.4058C15.0206 20.4033 17.1176 19.5333 18.6642 17.9867C20.2108 16.44 21.0808 14.343 21.0833 12.1558Z" fill="#DCC707"/>
</svg>
