<svg width="190" height="57" viewBox="0 0 190 57" fill="none" xmlns="http://www.w3.org/2000/svg">
<g clip-path="url(#clip0_1_86)">
<path d="M182.1 0.655884H7.09998C3.23398 0.655884 0.0999756 3.78989 0.0999756 7.65588V49.6559C0.0999756 53.5219 3.23398 56.6559 7.09998 56.6559H182.1C185.966 56.6559 189.1 53.5219 189.1 49.6559V7.65588C189.1 3.78989 185.966 0.655884 182.1 0.655884Z" fill="black"/>
<path d="M66.488 14.9919C66.5361 16.0297 66.1565 17.0417 65.438 17.7919C64.635 18.6261 63.5151 19.0791 62.358 19.0379C60.5833 19.0241 58.9898 17.9476 58.3143 16.3064C57.6389 14.6652 58.0131 12.779 59.264 11.5199C60.0767 10.6902 61.1968 10.2341 62.358 10.2599C62.9498 10.258 63.5358 10.3771 64.08 10.6099C64.5866 10.8143 65.0376 11.1357 65.396 11.5479L64.654 12.2899C64.0875 11.6161 63.237 11.2479 62.358 11.2959C61.4744 11.2916 60.6271 11.6475 60.0116 12.2815C59.3961 12.9154 59.0655 13.7728 59.096 14.6559C59.0772 15.9904 59.8631 17.2051 61.0881 17.7349C62.313 18.2647 63.7364 18.0055 64.696 17.0779C65.1268 16.6111 65.3752 16.0048 65.396 15.3699H62.358V14.3619H66.432C66.4693 14.5699 66.4881 14.7807 66.488 14.9919ZM72.9 11.4919H69.12V14.1519H72.564V15.1599H69.12V17.8199H72.9V18.8559H68V10.4559H72.9V11.4919ZM77.492 18.8559H76.414V11.4919H74.062V10.4559H79.9V11.4919H77.492V18.8559ZM84.016 18.8559V10.4559H85.094V18.8559H84.016ZM89.882 18.8559H88.804V11.4919H86.452V10.4559H92.22V11.4919H89.882V18.8559ZM103.154 17.7639C101.45 19.4583 98.6978 19.4583 96.994 17.7639C95.3423 16.0157 95.3423 13.2822 96.994 11.5339C97.8088 10.7132 98.9175 10.2516 100.074 10.2516C101.23 10.2516 102.339 10.7132 103.154 11.5339C104.813 13.2794 104.813 16.0185 103.154 17.7639ZM97.792 17.0639C99.0538 18.3205 101.094 18.3205 102.356 17.0639C103.595 15.6978 103.595 13.6141 102.356 12.2479C101.094 10.9913 99.0538 10.9913 97.792 12.2479C96.5527 13.6141 96.5527 15.6978 97.792 17.0639ZM105.912 18.8559V10.4559H107.228L111.316 16.9939V10.4559H112.394V18.8559H111.274L107.004 12.0099V18.8559H105.912Z" fill="white" stroke="white" stroke-width="0.2"/>
<path d="M95.496 31.1059C92.2136 31.1213 89.5637 33.792 89.574 37.0745C89.5843 40.3569 92.2508 43.0109 95.5332 43.0058C98.8157 43.0007 101.474 40.3383 101.474 37.0559C101.497 35.466 100.874 33.9349 99.7467 32.8132C98.6197 31.6915 97.0857 31.0754 95.496 31.1059ZM95.496 40.6679C94.0165 40.7713 92.6241 39.9599 91.9848 38.6217C91.3455 37.2835 91.5892 35.6904 92.5993 34.6045C93.6095 33.5186 95.1807 33.1606 96.5616 33.7016C97.9425 34.2426 98.8523 35.5728 98.856 37.0559C98.9015 37.9836 98.5704 38.8904 97.9378 39.5705C97.3051 40.2506 96.4246 40.6463 95.496 40.6679ZM82.462 31.1059C79.1777 31.1136 76.5208 33.7809 76.526 37.0652C76.5311 40.3495 79.1963 43.0084 82.4806 43.0059C85.7649 43.0033 88.426 40.3402 88.426 37.0559C88.449 35.466 87.8257 33.9349 86.6987 32.8132C85.5717 31.6915 84.0377 31.0754 82.448 31.1059H82.462ZM82.462 40.6679C80.9817 40.7772 79.5853 39.9698 78.9414 38.6324C78.2976 37.295 78.5375 35.6999 79.5462 34.6111C80.5549 33.5222 82.127 33.1612 83.5097 33.7011C84.8923 34.2409 85.8039 35.5716 85.808 37.0559C85.8535 37.9836 85.5224 38.8904 84.8898 39.5705C84.2571 40.2506 83.3766 40.6463 82.448 40.6679H82.462ZM66.936 32.9399V35.4599H72.984C72.8891 36.6468 72.3957 37.7668 71.584 38.6379C70.3604 39.8842 68.6671 40.5554 66.922 40.4859C63.2106 40.4859 60.202 37.4772 60.202 33.7659C60.202 30.0545 63.2106 27.0459 66.922 27.0459C68.6269 27.0181 70.2732 27.6676 71.5 28.8519L73.278 27.0739C71.6048 25.3797 69.317 24.4352 66.936 24.4559C63.5465 24.324 60.3565 26.057 58.6225 28.9724C56.8886 31.8877 56.8886 35.5181 58.6225 38.4334C60.3565 41.3487 63.5465 43.0818 66.936 42.9499C69.3604 43.0594 71.7138 42.115 73.39 40.3599C74.8567 38.7484 75.6398 36.6299 75.574 34.4519C75.5785 33.9213 75.5316 33.3915 75.434 32.8699L66.936 32.9399ZM130.37 34.8999C129.622 32.7008 127.595 31.1914 125.274 31.1059C123.726 31.1029 122.246 31.7407 121.185 32.8678C120.124 33.995 119.577 35.511 119.674 37.0559C119.64 38.6369 120.25 40.1639 121.364 41.2861C122.478 42.4082 124.001 43.0291 125.582 43.0059C127.571 43.0166 129.433 42.0279 130.538 40.3739L128.508 38.9739C127.892 40.0014 126.78 40.6289 125.582 40.6259C124.341 40.6732 123.197 39.957 122.698 38.8199L130.664 35.5299L130.37 34.8999ZM122.25 36.8879C122.193 36.0131 122.49 35.1521 123.075 34.4989C123.659 33.8457 124.482 33.4554 125.358 33.4159C126.281 33.3551 127.151 33.8508 127.57 34.6759L122.25 36.8879ZM115.782 42.6559H118.4V25.1559H115.782V42.6559ZM111.498 32.4359H111.4C110.602 31.5436 109.461 31.0343 108.264 31.0359C105.086 31.19 102.589 33.8114 102.589 36.9929C102.589 40.1744 105.086 42.7958 108.264 42.9499C109.465 42.9701 110.613 42.4575 111.4 41.5499H111.484V42.4039C111.484 44.6859 110.266 45.9039 108.306 45.9039C106.971 45.8726 105.787 45.0373 105.31 43.7899L103.028 44.7419C103.907 46.8794 105.995 48.2697 108.306 48.256C111.372 48.256 113.906 46.4499 113.906 42.0539V31.4559H111.498V32.4359ZM108.502 40.6679C106.63 40.5029 105.194 38.9351 105.194 37.0559C105.194 35.1767 106.63 33.6089 108.502 33.4439C109.407 33.4903 110.254 33.9 110.852 34.58C111.451 35.26 111.749 36.1528 111.68 37.0559C111.757 37.9632 111.46 38.8625 110.857 39.5448C110.254 40.2271 109.398 40.6329 108.488 40.6679H108.502ZM142.634 25.1559H136.376V42.6559H138.994V36.0199H142.648C144.682 36.166 146.627 35.1638 147.688 33.4228C148.75 31.6819 148.75 29.4939 147.688 27.7529C146.627 26.012 144.682 25.0098 142.648 25.1559H142.634ZM142.634 33.5559H138.98V27.5919H142.69C144.348 27.5919 145.693 28.9364 145.693 30.5949C145.693 32.2534 144.348 33.5979 142.69 33.5979L142.634 33.5559ZM158.776 31.0359C156.828 30.9195 154.997 31.9698 154.114 33.7099L156.438 34.6759C156.906 33.813 157.84 33.3079 158.818 33.3879C159.489 33.3095 160.164 33.504 160.69 33.9279C161.217 34.3517 161.551 34.9693 161.618 35.6419V35.8239C160.777 35.3787 159.839 35.1479 158.888 35.1519C156.382 35.1519 153.848 36.5519 153.848 39.0859C153.898 40.1775 154.387 41.2024 155.205 41.9276C156.022 42.6528 157.098 43.0164 158.188 42.9359C159.531 43.0323 160.819 42.3881 161.548 41.2559H161.632V42.6559H164.152V35.9219C164.152 32.8559 161.828 31.0779 158.846 31.0779L158.776 31.0359ZM158.454 40.6259C157.6 40.6259 156.41 40.1919 156.41 39.1419C156.41 37.7419 157.894 37.2799 159.21 37.2799C160.042 37.2594 160.864 37.4624 161.59 37.8679C161.409 39.4351 160.101 40.6294 158.524 40.6679L158.454 40.6259ZM173.336 31.4559L170.34 39.0439H170.256L167.148 31.4559H164.348L169.01 42.0679L166.35 47.9619H169.08L176.248 31.4559H173.336ZM149.802 42.6559H152.42V25.1559H149.802V42.6559Z" fill="white"/>
<path d="M14.7162 11.2119C14.2598 11.7594 14.0295 12.4604 14.0722 13.1719V44.1399C14.0295 44.8514 14.2598 45.5523 14.7162 46.0999L14.8142 46.1979L32.1602 28.8659V28.4599L14.8142 11.1139L14.7162 11.2119Z" fill="url(#paint0_linear_1_86)"/>
<path d="M37.8999 34.6478L32.1599 28.8658V28.4598L37.8999 22.6638L38.0259 22.7338L44.8998 26.6398C46.8598 27.7458 46.8598 29.5658 44.8998 30.6858L38.0539 34.5778L37.8999 34.6478Z" fill="url(#paint1_linear_1_86)"/>
<path d="M38.0679 34.5639L32.1599 28.6559L14.7159 46.0999C15.5401 46.8244 16.7633 46.8597 17.6279 46.1839L38.0819 34.5639" fill="url(#paint2_linear_1_86)"/>
<path d="M38.0682 22.748L17.6142 11.128C16.7496 10.4522 15.5264 10.4875 14.7022 11.212L32.1602 28.656L38.0682 22.748Z" fill="url(#paint3_linear_1_86)"/>
</g>
<defs>
<linearGradient id="paint0_linear_1_86" x1="1118.36" y1="184.714" x2="-368.632" y2="1671.7" gradientUnits="userSpaceOnUse">
<stop stop-color="#00A0FF"/>
<stop offset="0.01" stop-color="#00A1FF"/>
<stop offset="0.26" stop-color="#00BEFF"/>
<stop offset="0.51" stop-color="#00D2FF"/>
<stop offset="0.76" stop-color="#00DFFF"/>
<stop offset="1" stop-color="#00E3FF"/>
</linearGradient>
<linearGradient id="paint1_linear_1_86" x1="1562.36" y1="621.864" x2="-1824.24" y2="621.864" gradientUnits="userSpaceOnUse">
<stop stop-color="#FFE000"/>
<stop offset="0.41" stop-color="#FFBD00"/>
<stop offset="0.78" stop-color="#FFA500"/>
<stop offset="1" stop-color="#FF9C00"/>
</linearGradient>
<linearGradient id="paint2_linear_1_86" x1="2029.32" y1="585.432" x2="-510.905" y2="3124.54" gradientUnits="userSpaceOnUse">
<stop stop-color="#FF3A44"/>
<stop offset="1" stop-color="#C31162"/>
</linearGradient>
<linearGradient id="paint3_linear_1_86" x1="-423.498" y1="-202.467" x2="710.323" y2="931.354" gradientUnits="userSpaceOnUse">
<stop stop-color="#32A071"/>
<stop offset="0.07" stop-color="#2DA771"/>
<stop offset="0.48" stop-color="#15CF74"/>
<stop offset="0.8" stop-color="#06E775"/>
<stop offset="1" stop-color="#00F076"/>
</linearGradient>
<clipPath id="clip0_1_86">
<rect width="189" height="56" fill="white" transform="translate(0.0999756 0.655884)"/>
</clipPath>
</defs>
</svg>
