<svg width="33" height="33" viewBox="0 0 33 33" fill="none" xmlns="http://www.w3.org/2000/svg">
<path d="M28.8333 6.15576H20.8333C20.0571 6.15576 19.2915 6.33649 18.5972 6.68363C17.903 7.03076 17.299 7.53478 16.8333 8.15576C16.3676 7.53478 15.7637 7.03076 15.0694 6.68363C14.3751 6.33649 13.6095 6.15576 12.8333 6.15576H4.83331C4.30288 6.15576 3.79417 6.36648 3.4191 6.74155C3.04403 7.11662 2.83331 7.62533 2.83331 8.15576V24.1558C2.83331 24.6862 3.04403 25.1949 3.4191 25.57C3.79417 25.945 4.30288 26.1558 4.83331 26.1558H12.8333C13.629 26.1558 14.392 26.4718 14.9546 27.0344C15.5172 27.5971 15.8333 28.3601 15.8333 29.1558C15.8333 29.421 15.9387 29.6753 16.1262 29.8629C16.3137 30.0504 16.5681 30.1558 16.8333 30.1558C17.0985 30.1558 17.3529 30.0504 17.5404 29.8629C17.728 29.6753 17.8333 29.421 17.8333 29.1558C17.8333 28.3601 18.1494 27.5971 18.712 27.0344C19.2746 26.4718 20.0377 26.1558 20.8333 26.1558H28.8333C29.3637 26.1558 29.8725 25.945 30.2475 25.57C30.6226 25.1949 30.8333 24.6862 30.8333 24.1558V8.15576C30.8333 7.62533 30.6226 7.11662 30.2475 6.74155C29.8725 6.36648 29.3637 6.15576 28.8333 6.15576ZM12.8333 24.1558H4.83331V8.15576H12.8333C13.629 8.15576 14.392 8.47183 14.9546 9.03444C15.5172 9.59705 15.8333 10.3601 15.8333 11.1558V25.1558C14.9686 24.5051 13.9154 24.154 12.8333 24.1558ZM28.8333 24.1558H20.8333C19.7512 24.154 18.698 24.5051 17.8333 25.1558V11.1558C17.8333 10.3601 18.1494 9.59705 18.712 9.03444C19.2746 8.47183 20.0377 8.15576 20.8333 8.15576H28.8333V24.1558Z" fill="#DCC707"/>
</svg>
