<svg width="33" height="33" viewBox="0 0 33 33" fill="none" xmlns="http://www.w3.org/2000/svg">
<path d="M30.1666 26.1557H28.1666V12.1557C28.1666 11.6253 27.9559 11.1166 27.5808 10.7415C27.2058 10.3664 26.6971 10.1557 26.1666 10.1557H18.1666V4.15572C18.1669 3.79355 18.0687 3.43811 17.8828 3.12734C17.6968 2.81658 17.4299 2.56215 17.1106 2.39121C16.7913 2.22027 16.4316 2.13924 16.0698 2.15676C15.7081 2.17429 15.3579 2.28971 15.0566 2.49072L5.05663 9.15572C4.7823 9.33874 4.55749 9.58676 4.40221 9.8777C4.24693 10.1686 4.166 10.4934 4.16663 10.8232V26.1557H2.16663C1.90141 26.1557 1.64706 26.2611 1.45952 26.4486C1.27198 26.6361 1.16663 26.8905 1.16663 27.1557C1.16663 27.4209 1.27198 27.6753 1.45952 27.8628C1.64706 28.0504 1.90141 28.1557 2.16663 28.1557H30.1666C30.4318 28.1557 30.6862 28.0504 30.8737 27.8628C31.0613 27.6753 31.1666 27.4209 31.1666 27.1557C31.1666 26.8905 31.0613 26.6361 30.8737 26.4486C30.6862 26.2611 30.4318 26.1557 30.1666 26.1557ZM26.1666 12.1557V26.1557H18.1666V12.1557H26.1666ZM6.16663 10.8232L16.1666 4.15572V26.1557H6.16663V10.8232ZM14.1666 14.1557V16.1557C14.1666 16.4209 14.0613 16.6753 13.8737 16.8628C13.6862 17.0504 13.4318 17.1557 13.1666 17.1557C12.9014 17.1557 12.6471 17.0504 12.4595 16.8628C12.272 16.6753 12.1666 16.4209 12.1666 16.1557V14.1557C12.1666 13.8905 12.272 13.6361 12.4595 13.4486C12.6471 13.2611 12.9014 13.1557 13.1666 13.1557C13.4318 13.1557 13.6862 13.2611 13.8737 13.4486C14.0613 13.6361 14.1666 13.8905 14.1666 14.1557ZM10.1666 14.1557V16.1557C10.1666 16.4209 10.0613 16.6753 9.87373 16.8628C9.6862 17.0504 9.43184 17.1557 9.16663 17.1557C8.90141 17.1557 8.64706 17.0504 8.45952 16.8628C8.27198 16.6753 8.16663 16.4209 8.16663 16.1557V14.1557C8.16663 13.8905 8.27198 13.6361 8.45952 13.4486C8.64706 13.2611 8.90141 13.1557 9.16663 13.1557C9.43184 13.1557 9.6862 13.2611 9.87373 13.4486C10.0613 13.6361 10.1666 13.8905 10.1666 14.1557ZM10.1666 21.1557V23.1557C10.1666 23.4209 10.0613 23.6753 9.87373 23.8628C9.6862 24.0504 9.43184 24.1557 9.16663 24.1557C8.90141 24.1557 8.64706 24.0504 8.45952 23.8628C8.27198 23.6753 8.16663 23.4209 8.16663 23.1557V21.1557C8.16663 20.8905 8.27198 20.6361 8.45952 20.4486C8.64706 20.2611 8.90141 20.1557 9.16663 20.1557C9.43184 20.1557 9.6862 20.2611 9.87373 20.4486C10.0613 20.6361 10.1666 20.8905 10.1666 21.1557ZM14.1666 21.1557V23.1557C14.1666 23.4209 14.0613 23.6753 13.8737 23.8628C13.6862 24.0504 13.4318 24.1557 13.1666 24.1557C12.9014 24.1557 12.6471 24.0504 12.4595 23.8628C12.272 23.6753 12.1666 23.4209 12.1666 23.1557V21.1557C12.1666 20.8905 12.272 20.6361 12.4595 20.4486C12.6471 20.2611 12.9014 20.1557 13.1666 20.1557C13.4318 20.1557 13.6862 20.2611 13.8737 20.4486C14.0613 20.6361 14.1666 20.8905 14.1666 21.1557Z" fill="#B7B7C7"/>
</svg>
