<svg width="33" height="33" viewBox="0 0 33 33" fill="none" xmlns="http://www.w3.org/2000/svg">
<path d="M22.75 4.15576C20.1688 4.15576 17.9088 5.26576 16.5 7.14201C15.0912 5.26576 12.8312 4.15576 10.25 4.15576C8.19528 4.15808 6.22539 4.97534 4.77248 6.42824C3.31958 7.88115 2.50232 9.85104 2.5 11.9058C2.5 20.6558 15.4737 27.7383 16.0262 28.0308C16.1719 28.1091 16.3346 28.1501 16.5 28.1501C16.6654 28.1501 16.8281 28.1091 16.9737 28.0308C17.5262 27.7383 30.5 20.6558 30.5 11.9058C30.4977 9.85104 29.6804 7.88115 28.2275 6.42824C26.7746 4.97534 24.8047 4.15808 22.75 4.15576ZM16.5 26.0058C14.2175 24.6758 4.5 18.617 4.5 11.9058C4.50198 10.3814 5.10842 8.91999 6.18633 7.84209C7.26423 6.76419 8.72561 6.15775 10.25 6.15576C12.6813 6.15576 14.7225 7.45076 15.575 9.53076C15.6503 9.71417 15.7785 9.87105 15.9432 9.98145C16.1079 10.0918 16.3017 10.1508 16.5 10.1508C16.6983 10.1508 16.8921 10.0918 17.0568 9.98145C17.2215 9.87105 17.3497 9.71417 17.425 9.53076C18.2775 7.44701 20.3187 6.15576 22.75 6.15576C24.2744 6.15775 25.7358 6.76419 26.8137 7.84209C27.8916 8.91999 28.498 10.3814 28.5 11.9058C28.5 18.607 18.78 24.6745 16.5 26.0058Z" fill="#FFE70D"/>
</svg>
